<svg xmlns="http://www.w3.org/2000/svg" viewBox="0 0 64 64" fill="none">
  <rect width="64" height="64" rx="12" fill="#0f172a"/>
  <g transform="translate(12 12)">
    <path d="M34.2 1.6c-1.6-1.5-4.3-1.4-6.3.3l-14 12.5c-2 1.8-2.3 4.6-.7 6.5l-2.2 2c-.7.6-.8 1.6-.3 2.3l3.5 5.4c.5.8 1.4 1.1 2.3.8l3.8-1.2 1.2 3.9c.2.8 1 1.3 1.8 1.2l5.7-.9c.9-.1 1.5-.9 1.3-1.8l-1.4-5.1 3.6-1c.9-.2 1.5-1 1.3-1.9l-1-3.6 3.3-3c1.7-1.5 1.7-4.2.1-6L34.2 1.6Z" fill="#ffffff" opacity="0.2"/>
    <path d="M33.2 2.9C31.6 1.6 29 1.6 27.2 3.3l-14 12.5c-1.8 1.7-2 4.4-.4 6.2l-2.2 2C9.9 25.4 10 26.4 10.7 27l3.5 5.4c.6.9 1.7 1.1 2.6.7l4.6-1.5 1.5 4.6c.2.9 1.1 1.4 2 .9l5.7-.9c1-.1 1.8-1 1.7-2L33.4 30l3.5-1c1-.2 1.6-1.2 1.3-2.2l-1-3.6 3.3-3c1.5-1.6 1.4-4.2-.2-5.7L33.2 2.9Z" fill="#f43f5e"/>
    <path d="M25.8 11.8l-4.3 3.8-8.8-14.1 4.4-3.8 8.7 14.1ZM26.7 21.6l-5.4 4.8-.7-1.1 5.4-4.8.7 1.1ZM21.8 26.6l-7.4 6.4-.7-1.4 7.4-6.4.7 1.4Z" fill="#fff"/>
    <path d="M19 34.8c-.4 0-.7-.1-1.1-.4l-5.8-4.5c-.8-.6-1-1.7-.4-2.5s1.7-1 2.5-.4l5.8 4.5c.8.6 1 1.7.4 2.5-.4.5-1 .8-1.4.8Z" fill="#fff"/>
  </g>
</svg>
